HIERARCHY
ROOT Hips
{
	OFFSET 0.00000 0.00000 0.00000
	CHANNELS 6 Xposition Yposition Zposition Zrotation Yrotation Xrotation 
	JOINT LHipJoint
	{
		OFFSET 0 0 0
		CHANNELS 3 Zrotation Yrotation Xrotation
		JOINT LeftHip
		{
			OFFSET 1.77779 -1.88989 0.48267
			CHANNELS 3 Zrotation Yrotation Xrotation
			JOINT LeftKnee
			{
				OFFSET 2.53442 -6.96327 0.00000
				CHANNELS 3 Zrotation Yrotation Xrotation
				JOINT LeftAnkle
				{
					OFFSET 2.71068 -7.44755 0.00000
					CHANNELS 3 Zrotation Yrotation Xrotation
					JOINT LeftToe
					{
						OFFSET 0.17992 -0.49431 2.22524
						CHANNELS 3 Zrotation Yrotation Xrotation
						End Site
						{
							OFFSET 0.00000 -0.00000 1.14687
						}
					}
				}
			}
		}
	}
	JOINT RHipJoint
	{
		OFFSET 0 0 0
		CHANNELS 3 Zrotation Yrotation Xrotation
		JOINT RightHip
		{
			OFFSET -1.58469 -1.88989 0.48267
			CHANNELS 3 Zrotation Yrotation Xrotation
			JOINT RightKnee
			{
				OFFSET -2.60386 -7.15404 0.00000
				CHANNELS 3 Zrotation Yrotation Xrotation
				JOINT RightAnkle
				{
					OFFSET -2.73334 -7.50979 0.00000
					CHANNELS 3 Zrotation Yrotation Xrotation
					JOINT RightToe
					{
						OFFSET -0.25618 -0.70384 2.21822
						CHANNELS 3 Zrotation Yrotation Xrotation
						End Site
						{
							OFFSET -0.00000 -0.00000 1.16381
						}
					}
				}
			}
		}
	}
	JOINT lowerback
	{
		OFFSET 0 0 0
		CHANNELS 3 Zrotation Yrotation Xrotation
		JOINT Chest
		{
			OFFSET 0.03410 2.01612 -0.22230
			CHANNELS 3 Zrotation Yrotation Xrotation
			JOINT Chest2
			{
				OFFSET 0.03465 2.03012 0.00937
				CHANNELS 3 Zrotation Yrotation Xrotation
				JOINT lowerneck
				{
					OFFSET 0 0 0
					CHANNELS 3 Zrotation Yrotation Xrotation
					JOINT Neck
					{
						OFFSET -0.00219 1.70459 0.20857
						CHANNELS 3 Zrotation Yrotation Xrotation
						JOINT Head
						{
							OFFSET 0.02518 1.72339 -0.22179
							CHANNELS 3 Zrotation Yrotation Xrotation
							End Site
							{
								OFFSET 0.00282 1.74122 -0.09823
							}
						}
					}
				}
				JOINT LeftCollar
				{
					OFFSET 0 0 0
					CHANNELS 3 Zrotation Yrotation Xrotation
					JOINT LeftShoulder
					{
						OFFSET 3.36358 1.00547 -0.37661
CHANNELS 3 Zrotation Xrotation Yrotation
						JOINT LeftElbow
						{
OFFSET 0 -5.065070 0.000000
CHANNELS 3 Zrotation Xrotation Yrotation
							JOINT LeftWrist
							{
OFFSET 0 -3.601960 0.000000
CHANNELS 3 Zrotation Xrotation Yrotation
								JOINT lhand
								{
									OFFSET 0 0 0
CHANNELS 3 Zrotation Xrotation Yrotation
									JOINT LFingers
									{
OFFSET 0 -0.450350 0.000000
CHANNELS 3 Zrotation Xrotation Yrotation
										End Site
										{
OFFSET 0 -0.363080 0.000000
										}
									}
								}
								JOINT LThumb
								{
OFFSET 0 0.000000 0.000000
CHANNELS 3 Zrotation Xrotation Yrotation
									End Site
									{
OFFSET 0 -0.368620 0.368620
									}
								}
							}
						}
					}
				}
				JOINT RightCollar
				{
					OFFSET 0 0 0
					CHANNELS 3 Zrotation Yrotation Xrotation
					JOINT RightShoulder
					{
						OFFSET -3.50159 0.80383 -0.71526
CHANNELS 3 Zrotation Xrotation Yrotation
						JOINT RightElbow
						{
OFFSET 0 -5.363940 0.000000
CHANNELS 3 Zrotation Xrotation Yrotation
							JOINT RightWrist
							{
OFFSET 0 -3.580350 0.000000
CHANNELS 3 Zrotation Xrotation Yrotation
								JOINT rhand
								{
									OFFSET 0 0 0
CHANNELS 3 Zrotation Xrotation Yrotation
									JOINT RFingers
									{
OFFSET 0 -0.663750 0.000000
CHANNELS 3 Zrotation Xrotation Yrotation
										End Site
										{
OFFSET 0 -0.535130 0.000000
										}
									}
								}
								JOINT RThumb
								{
OFFSET 0 0.000000 0.000000
CHANNELS 3 Zrotation Xrotation Yrotation
									End Site
									{
OFFSET 0 -0.543300 0.543300
									}
								}
							}
						}
					}
				}
			}
		}
	}
}
MOTION
Frames: 7
Frame Time: 0.008333333333333333
-0.919500 17.206700 -32.306200 -6.517100 -2.111500 6.010100 0.000000 0.000000 0.000000 -8.684800 -1.745000 -26.729100 25.049200 19.377400 104.911600 -0.165400 -10.395200 11.795000 0.000400 0.128300 0.352500 0.000000 0.000000 0.000000 33.709200 11.157100 -19.641800 -6.548700 -14.939800 47.146100 -1.248600 -10.077900 -26.949900 -0.087400 1.906900 -5.248600 3.175500 0.362000 17.335700 3.113600 1.404300 0.490700 1.220700 0.606600 -9.227400 -1.304100 -3.158800 -21.859900 1.764600 -4.181400 12.282200 0.272800 -1.884900 7.388500 -0.000000 0.000000 0.000000 4.022600 21.156200 -44.746700 104.934600 -59.140200 72.896400 25.835300 -28.058400 -2.554600 0.000000 0.000000 0.000000 -7.125000 0.000000 0.000000 -0.615500 32.817100 -0.183700 -0.000000 0.000000 0.000000 -3.400200 7.263900 40.827200 -111.528600 -58.174200 -78.530000 -26.945900 -24.742200 -36.566400 0.000000 0.000000 0.000000 7.125000 0.000000 -0.000000 3.615500 -9.713500 4.181300
-0.921583 17.221177 -32.176945 -6.512693 -1.873530 5.955369 0.000000 0.000000 0.000000 -8.604373 -2.058429 -27.350589 25.041908 19.379243 104.889590 -0.156398 -10.228976 11.692295 0.018083 0.538878 1.482169 0.000000 0.000000 0.000000 33.789253 10.790623 -19.095423 -6.489775 -14.886137 46.915983 -1.233722 -10.156965 -26.903342 -0.109276 2.105578 -5.798637 3.173523 0.346721 17.382525 3.167690 1.396607 0.399695 1.283632 0.603154 -9.355988 -1.465355 -3.209551 -21.493823 1.788587 -4.212545 12.257519 0.307712 -1.908513 7.325114 0.000000 0.000000 0.000000 3.992790 21.664167 -44.864443 105.414386 -59.080153 73.307806 25.947247 -28.171709 -2.604443 0.000000 0.000000 0.000000 -7.125000 0.000000 0.000000 -0.525724 32.875464 -0.156508 0.000000 0.000000 0.000000 -3.482470 7.375927 40.960222 -112.476072 -57.990213 -79.332110 -27.146421 -25.311255 -36.394647 0.000000 0.000000 0.000000 7.125000 0.000000 0.000000 3.472755 -9.592819 4.010402
-0.923667 17.235655 -32.047689 -6.508285 -1.635560 5.900638 0.000000 0.000000 0.000000 -8.523945 -2.371858 -27.972078 25.034616 19.381086 104.867580 -0.147397 -10.062753 11.589591 0.035766 0.949455 2.611839 0.000000 0.000000 0.000000 33.869307 10.424145 -18.549045 -6.430850 -14.832474 46.685866 -1.218844 -10.236030 -26.856785 -0.131153 2.304256 -6.348673 3.171547 0.331442 17.429349 3.221780 1.388914 0.308690 1.346563 0.599709 -9.484575 -1.626611 -3.260303 -21.127746 1.812573 -4.243690 12.232838 0.342623 -1.932125 7.261729 0.000000 0.000000 0.000000 3.962981 22.172133 -44.982186 105.894173 -59.020107 73.719211 26.059193 -28.285018 -2.654286 0.000000 0.000000 0.000000 -7.125000 0.000000 0.000000 -0.435947 32.933828 -0.129316 0.000000 0.000000 0.000000 -3.564741 7.487953 41.093243 -113.423545 -57.806227 -80.134220 -27.346942 -25.880310 -36.222894 0.000000 0.000000 0.000000 7.125000 0.000000 0.000000 3.330011 -9.472138 3.839504
-0.925750 17.250132 -31.918434 -6.503878 -1.397590 5.845906 0.000000 0.000000 0.000000 -8.443518 -2.685287 -28.593567 25.027324 19.382929 104.845570 -0.138395 -9.896529 11.486886 0.053448 1.360033 3.741508 0.000000 0.000000 0.000000 33.949360 10.057668 -18.002668 -6.371925 -14.778812 46.455749 -1.203966 -10.315095 -26.810227 -0.153029 2.502933 -6.898710 3.169570 0.316164 17.476174 3.275870 1.381222 0.217685 1.409495 0.596263 -9.613163 -1.787866 -3.311054 -20.761670 1.836560 -4.274836 12.208157 0.377535 -1.955738 7.198343 0.000000 0.000000 0.000000 3.933171 22.680100 -45.099929 106.373959 -58.960060 74.130617 26.171140 -28.398327 -2.704129 0.000000 0.000000 0.000000 -7.125000 0.000000 0.000000 -0.346171 32.992192 -0.102124 0.000000 0.000000 0.000000 -3.647011 7.599980 41.226265 -114.371017 -57.622240 -80.936331 -27.547463 -26.449365 -36.051141 0.000000 0.000000 0.000000 7.125000 0.000000 0.000000 3.187266 -9.351457 3.668606
-0.927608 17.265246 -31.788727 -6.511771 -1.170510 5.789238 0.000000 0.000000 0.000000 -8.355760 -2.985239 -29.197794 25.006883 19.387962 104.784011 -0.133363 -9.749737 11.328076 0.064663 1.637864 4.505812 0.000000 0.000000 0.000000 34.039222 9.696673 -17.444141 -6.310536 -14.722356 46.215010 -1.184974 -10.384550 -26.724757 -0.176179 2.697977 -7.439418 3.179483 0.312001 17.534744 3.328119 1.390983 0.132464 1.459188 0.600511 -9.741929 -1.921243 -3.366459 -20.464198 1.841860 -4.316830 12.207726 0.399489 -1.984265 7.153288 0.000000 0.000000 0.000000 3.923663 23.152522 -45.238206 106.837229 -58.900526 74.527642 26.264202 -28.534360 -2.742090 0.000000 0.000000 0.000000 -7.125000 0.000000 0.000000 -0.271440 33.036853 -0.079566 0.000000 0.000000 0.000000 -3.710199 7.695059 41.321394 -115.286710 -57.437186 -81.710145 -27.708654 -27.013540 -35.978069 0.000000 0.000000 0.000000 7.125000 0.000000 0.000000 3.086501 -9.320873 3.550398
-0.928810 17.282208 -31.657708 -6.555363 -0.975038 5.726948 0.000000 0.000000 0.000000 -8.246725 -3.246074 -29.751918 24.948278 19.402252 104.607664 -0.139854 -9.659347 11.006420 0.057104 1.530405 4.209665 0.000000 0.000000 0.000000 34.157553 9.351591 -16.850352 -6.241995 -14.657795 45.943437 -1.154042 -10.426113 -26.526347 -0.203024 2.882471 -7.953047 3.223904 0.340101 17.627406 3.375024 1.451404 0.064030 1.470461 0.627088 -9.871211 -1.973704 -3.435374 -20.365847 1.792926 -4.390312 12.277683 0.383836 -2.027057 7.161435 0.000000 0.000000 0.000000 3.973078 23.521777 -45.436082 107.252561 -58.842483 74.882927 26.302452 -28.736350 -2.745562 0.000000 0.000000 0.000000 -7.125000 0.000000 0.000000 -0.240374 33.041741 -0.070457 0.000000 0.000000 0.000000 -3.717998 7.740949 41.306543 -116.110162 -57.249032 -82.401831 -27.755692 -27.563550 -36.191411 0.000000 0.000000 0.000000 7.125000 0.000000 0.000000 3.107576 -9.551791 3.585123
-0.930012 17.299170 -31.526690 -6.598956 -0.779565 5.664657 0.000000 0.000000 0.000000 -8.137690 -3.506908 -30.306041 24.889674 19.416543 104.431317 -0.146345 -9.568956 10.684763 0.049544 1.422945 3.913519 0.000000 0.000000 0.000000 34.275883 9.006509 -16.256562 -6.173455 -14.593234 45.671864 -1.123111 -10.467676 -26.327936 -0.229868 3.066965 -8.466676 3.268324 0.368201 17.720067 3.421929 1.511824 -0.004404 1.481733 0.653666 -10.000493 -2.026165 -3.504289 -20.267496 1.743991 -4.463795 12.347640 0.368183 -2.069848 7.169581 0.000000 0.000000 0.000000 4.022494 23.891033 -45.633959 107.667893 -58.784440 75.238213 26.340703 -28.938340 -2.749035 0.000000 0.000000 0.000000 -7.125000 0.000000 0.000000 -0.209309 33.046629 -0.061349 0.000000 0.000000 0.000000 -3.725798 7.786839 41.291691 -116.933615 -57.060878 -83.093517 -27.802730 -28.113560 -36.404753 0.000000 0.000000 0.000000 7.125000 0.000000 0.000000 3.128651 -9.782709 3.619847
